<?xml version="1.0" standalone="no"?>
<!DOCTYPE svg PUBLIC "-//W3C//DTD SVG 20010904//EN"
 "http://www.w3.org/TR/2001/REC-SVG-20010904/DTD/svg10.dtd">
<svg version="1.0" xmlns="http://www.w3.org/2000/svg"
 width="1024.000000pt" height="1024.000000pt" viewBox="0 0 1024.000000 1024.000000"
 preserveAspectRatio="xMidYMid meet">
<metadata>
Created by potrace 1.14, written by Peter Selinger 2001-2017
</metadata>
<g transform="translate(0.000000,1024.000000) scale(0.100000,-0.100000)"
fill="#000000" stroke="none">
<path d="M0 5120 l0 -5120 5120 0 5120 0 0 5120 0 5120 -5120 0 -5120 0 0
-5120z m3055 4090 c195 -33 409 -50 765 -60 710 -19 1170 -74 1805 -216 504
-113 887 -322 1132 -619 252 -306 459 -718 528 -1049 55 -268 34 -578 -57
-835 -162 -459 -518 -805 -1165 -1134 -614 -311 -1488 -520 -2288 -545 l-210
-7 -17 -100 c-45 -260 -69 -766 -74 -1545 -5 -719 -4 -717 -71 -791 -44 -49
-100 -67 -338 -109 -231 -41 -321 -49 -410 -39 -232 26 -324 168 -344 532 -10
185 1 445 33 802 32 353 46 573 46 745 0 74 7 225 15 335 8 110 20 355 25 545
6 190 15 397 20 461 5 64 23 372 40 685 16 313 32 587 35 609 5 48 32 513 39
710 4 77 16 238 28 357 12 120 20 219 18 221 -6 6 -27 3 -670 -104 -500 -83
-554 -94 -830 -169 -162 -44 -308 -80 -324 -80 -54 0 -114 39 -198 130 -99
106 -142 173 -163 258 -46 178 83 333 382 462 98 42 446 150 655 204 76 19
258 58 405 86 397 74 627 135 834 218 120 48 183 69 204 66 17 -2 84 -13 150
-24z m1655 -5087 c25 -9 103 -45 174 -80 101 -50 142 -78 186 -121 102 -102
179 -275 199 -447 21 -174 9 -346 -24 -359 -25 -9 -94 7 -156 38 -50 24 -69
40 -86 71 -32 60 -51 180 -58 373 -7 203 -16 240 -65 265 -30 16 -50 18 -135
13 -145 -8 -193 -25 -269 -96 -73 -69 -112 -136 -179 -315 -91 -243 -128 -426
-128 -648 0 -116 3 -154 20 -207 38 -121 81 -164 203 -207 189 -67 393 -25
590 120 141 103 286 219 323 256 55 58 103 52 131 -15 30 -72 -9 -139 -180
-309 -259 -258 -540 -369 -780 -310 -205 52 -299 110 -448 280 -145 165 -173
263 -165 564 6 218 19 298 83 497 21 65 69 181 107 257 65 132 74 145 163 233
67 66 114 103 160 125 96 48 235 57 334 22z m1417 -23 c281 -22 574 -111 717
-219 143 -108 246 -289 246 -431 0 -173 -150 -345 -417 -479 -35 -17 -63 -37
-63 -44 0 -6 21 -52 46 -102 114 -222 245 -381 335 -405 24 -7 82 -14 128 -15
89 -3 111 -14 111 -58 0 -30 -63 -83 -127 -108 -49 -20 -77 -23 -183 -24 -119
0 -128 1 -190 31 -36 17 -90 53 -120 81 -56 52 -241 309 -267 373 -8 19 -31
55 -51 79 l-35 43 -81 -6 c-45 -4 -97 -10 -116 -14 -35 -8 -35 -8 -47 -82 -6
-42 -12 -182 -12 -318 l-1 -242 -27 -11 c-16 -6 -72 -9 -131 -7 -94 3 -104 6
-128 29 -17 17 -25 37 -25 60 -1 106 21 846 30 1024 6 116 13 292 15 392 3
181 3 181 -19 187 -35 9 -162 -11 -248 -39 -82 -26 -96 -25 -130 13 -46 51
-24 179 40 231 43 36 60 40 242 56 175 16 343 18 508 5z m1715 -9 c39 -15 48
-39 57 -163 9 -110 93 -586 131 -738 10 -41 35 -149 55 -240 41 -189 74 -310
86 -310 9 0 41 82 59 150 24 93 145 461 206 630 34 96 93 261 129 365 87 250
99 262 261 280 74 8 115 -9 140 -57 22 -43 33 -188 34 -458 0 -288 26 -835 44
-965 13 -86 18 -103 41 -122 38 -33 85 -29 166 12 82 42 92 42 124 10 55 -54
18 -118 -124 -213 -101 -68 -165 -88 -248 -78 -97 11 -187 77 -224 163 -24 56
-64 204 -84 313 -16 87 -34 357 -35 513 0 48 -3 87 -8 87 -11 0 -50 -112 -127
-360 -109 -353 -135 -431 -170 -507 -46 -100 -61 -108 -205 -108 -143 1 -205
17 -231 59 -44 73 -166 532 -199 751 -7 44 -20 96 -31 115 -10 19 -18 32 -19
28 0 -4 -9 -69 -20 -145 -26 -176 -86 -706 -96 -841 -7 -103 -7 -104 -38 -123
-36 -22 -99 -25 -136 -6 -34 17 -49 53 -51 123 -1 57 37 504 46 534 2 8 18
126 35 261 33 264 55 541 66 817 l6 172 31 22 c17 13 56 28 87 35 60 14 199
10 242 -6z"/>
<path d="M4145 8223 c-145 -19 -312 -66 -319 -91 -19 -62 -68 -477 -81 -682
-24 -387 -25 -399 -50 -715 -13 -165 -29 -363 -35 -440 -18 -235 -30 -511 -30
-682 l0 -163 73 0 c73 0 260 26 397 55 217 46 799 229 935 294 185 89 348 201
616 422 248 206 389 363 539 602 145 232 203 380 204 522 0 134 -41 227 -161
370 -185 220 -474 327 -1208 445 -362 58 -476 70 -665 68 -102 0 -198 -3 -215
-5z"/>
<path d="M6120 3837 c-13 -7 -28 -24 -32 -37 -15 -52 -61 -768 -51 -780 15
-16 136 4 246 41 186 62 307 149 398 288 73 110 93 196 68 282 -37 122 -178
184 -459 204 -52 3 -106 8 -120 11 -14 2 -36 -2 -50 -9z"/>
</g>
</svg>
